<svg xmlns="http://www.w3.org/2000/svg" xmlns:xlink="http://www.w3.org/1999/xlink" version="1.1" id="Capa_1" x="0px" y="0px" viewBox="0 0 496 496" style="enable-background:new 0 0 496 496;" xml:space="preserve" width="512" height="512" class=""><g><g>
	<rect x="40" y="168" style="fill:#4B4B4B" width="16" height="80" data-original="#333333" class="active-path" data-old_color="#4b4b4b"></rect>
	<rect x="200" y="144" style="fill:#4B4B4B" width="160" height="16" data-original="#333333" class="active-path" data-old_color="#4b4b4b"></rect>
	<path style="fill:#4B4B4B" d="M440,224v160H56v-40H40v64c0,22.056,17.944,40,40,40h48v32H96v16h304v-16h-32v-32h48   c22.056,0,40-17.944,40-40V224H440z M352,480H144v-32h208V480z M416,432H80c-13.232,0-24-10.768-24-24v-8h384v8   C440,421.232,429.232,432,416,432z" data-original="#333333" class="active-path" data-old_color="#4b4b4b"></path>
</g><g>
	<path style="fill:#109BF8" d="M496,232H352V120h144V232z" data-original="#FFA64D" class="" data-old_color="#WORKFL"></path>
	<path style="fill:#109BF8" d="M144,352H0V240h144V352z" data-original="#FFA64D" class="" data-old_color="#WORKFL"></path>
	<path style="fill:#109BF8" d="M336,352H192V208h144V352z" data-original="#FFA64D" class="" data-old_color="#WORKFL"></path>
	<path style="fill:#109BF8" d="M208,176H0V0h208V176z" data-original="#FFA64D" class="" data-old_color="#WORKFL"></path>
</g><g>
	<rect x="32" y="32" style="fill:#4B4B4B" width="16" height="16" data-original="#333333" class="active-path" data-old_color="#4b4b4b"></rect>
	<rect x="64" y="32" style="fill:#4B4B4B" width="112" height="16" data-original="#333333" class="active-path" data-old_color="#4b4b4b"></rect>
	<rect x="160" y="128" style="fill:#4B4B4B" width="16" height="16" data-original="#333333" class="active-path" data-old_color="#4b4b4b"></rect>
	<rect x="32" y="128" style="fill:#4B4B4B" width="112" height="16" data-original="#333333" class="active-path" data-old_color="#4b4b4b"></rect>
	<rect x="32" y="96" style="fill:#4B4B4B" width="144" height="16" data-original="#333333" class="active-path" data-old_color="#4b4b4b"></rect>
	<rect x="32" y="64" style="fill:#4B4B4B" width="144" height="16" data-original="#333333" class="active-path" data-old_color="#4b4b4b"></rect>
	<rect x="384" y="152" style="fill:#4B4B4B" width="16" height="16" data-original="#333333" class="active-path" data-old_color="#4b4b4b"></rect>
	<rect x="416" y="152" style="fill:#4B4B4B" width="48" height="16" data-original="#333333" class="active-path" data-old_color="#4b4b4b"></rect>
	<rect x="448" y="184" style="fill:#4B4B4B" width="16" height="16" data-original="#333333" class="active-path" data-old_color="#4b4b4b"></rect>
	<rect x="384" y="184" style="fill:#4B4B4B" width="48" height="16" data-original="#333333" class="active-path" data-old_color="#4b4b4b"></rect>
	<rect x="32" y="272" style="fill:#4B4B4B" width="16" height="16" data-original="#333333" class="active-path" data-old_color="#4b4b4b"></rect>
	<rect x="64" y="272" style="fill:#4B4B4B" width="48" height="16" data-original="#333333" class="active-path" data-old_color="#4b4b4b"></rect>
	<rect x="96" y="304" style="fill:#4B4B4B" width="16" height="16" data-original="#333333" class="active-path" data-old_color="#4b4b4b"></rect>
	<rect x="32" y="304" style="fill:#4B4B4B" width="48" height="16" data-original="#333333" class="active-path" data-old_color="#4b4b4b"></rect>
	<rect x="224" y="240" style="fill:#4B4B4B" width="80" height="16" data-original="#333333" class="active-path" data-old_color="#4b4b4b"></rect>
	<rect x="224" y="272" style="fill:#4B4B4B" width="80" height="16" data-original="#333333" class="active-path" data-old_color="#4b4b4b"></rect>
	<rect x="224" y="304" style="fill:#4B4B4B" width="80" height="16" data-original="#333333" class="active-path" data-old_color="#4b4b4b"></rect>
</g><path style="fill:#109BF8" d="M424,80H296V0h128V80z" data-original="#FFA64D" class="" data-old_color="#WORKFL"></path><rect x="328" y="32" style="fill:#4B4B4B" width="64" height="16" data-original="#333333" class="active-path" data-old_color="#4b4b4b"></rect></g> </svg>