<svg xmlns="http://www.w3.org/2000/svg" xmlns:xlink="http://www.w3.org/1999/xlink" version="1.1" id="Layer_1_1_" x="0px" y="0px" viewBox="0 0 64 64" style="enable-background:new 0 0 64 64;" xml:space="preserve" width="512" height="512" class=""><g><g>
	<g>
		<rect x="35" y="15" style="fill:#109BF8" width="14" height="8" data-original="#F0BC5E" class="" data-old_color="#F0BC5E"></rect>
	</g>
	<g>
		<rect x="15" y="15" style="fill:#109BF8" width="14" height="8" data-original="#F0BC5E" class="" data-old_color="#F0BC5E"></rect>
	</g>
	<g>
		<path style="fill:#109BF8" d="M18.073,49.682C17.364,47.91,17,46.02,17,44.111V44c0-2.53,0.632-4.909,1.738-7h-0.975L13,39.382    v11.295L18.808,53H19.4L18.073,49.682z" data-original="#F0BC5E" class="" data-old_color="#F0BC5E"></path>
	</g>
	<g>
		<path style="fill:#109BF8" d="M46.236,37h-0.975C46.368,39.091,47,41.47,47,44v0.111c0,1.908-0.364,3.799-1.073,5.571L44.6,53    h0.592L51,50.677V39.382L46.236,37z" data-original="#F0BC5E" class="" data-old_color="#F0BC5E"></path>
	</g>
	<g>
		<path d="M50,1H14c-1.654,0-3,1.346-3,3v29h9.411C17.685,35.87,16,39.738,16,44v0.111c0,2.044,0.385,4.043,1.144,5.941l3.419,8.547    c1.069,2.673,3.62,4.4,6.499,4.4h9.876c2.879,0,5.43-1.728,6.5-4.4l3.418-8.547C47.615,48.154,48,46.155,48,44.111V44    c0-4.262-1.685-8.13-4.411-11H53V4C53,2.346,51.654,1,50,1z M14,3h36c0.551,0,1,0.448,1,1v5H13V4C13,3.448,13.449,3,14,3z M33,32    v-1.949c3.847,0.274,7.266,2.1,9.632,4.865c-1.344,1.177-4.786,3.722-9.632,4.043V36h-2v2.958    c-4.824-0.322-8.279-2.869-9.63-4.045c2.366-2.764,5.784-4.589,9.63-4.863V32H33z M38,48c-0.551,0-1-0.448-1-1s0.449-1,1-1    s1,0.448,1,1S38.551,48,38,48z M37.776,44.023C36.228,44.14,35,45.422,35,47c0,1.302,0.839,2.402,2,2.816V54H27v-4.184    c1.161-0.414,2-1.514,2-2.816c0-1.578-1.228-2.86-2.776-2.977l-0.868-4.341C27.212,40.437,29.441,41,32,41    s4.788-0.563,6.644-1.318L37.776,44.023z M26,48c-0.551,0-1-0.448-1-1s0.449-1,1-1s1,0.448,1,1S26.551,48,26,48z M22.42,57.857    l-3.418-8.547C18.337,47.649,18,45.9,18,44.111V44c0-2.745,0.806-5.301,2.177-7.465c0.649,0.559,1.637,1.313,2.92,2.047    l1.192,5.959C23.512,45.085,23,45.982,23,47c0,1.302,0.839,2.402,2,2.816v10.736C23.848,60.032,22.912,59.089,22.42,57.857z     M27.062,61c-0.021,0-0.041-0.004-0.062-0.005V56h10v4.995c-0.021,0-0.041,0.005-0.062,0.005H27.062z M46,44.111    c0,1.789-0.337,3.538-1.001,5.199l-3.418,8.547c-0.493,1.231-1.429,2.175-2.581,2.694V49.816c1.161-0.414,2-1.514,2-2.816    c0-1.018-0.512-1.915-1.289-2.458l1.192-5.959c1.283-0.734,2.271-1.488,2.92-2.047C45.194,38.699,46,41.255,46,44V44.111z     M41.292,31c-2.623-1.88-5.826-3-9.292-3s-6.669,1.12-9.292,3H13V11h38v20H41.292z" data-original="#000000" class="active-path" style="fill:#4B4B4B" data-old_color="#4b4b4b"></path>
		<path d="M54.536,41.465l-1.414,1.414C53.688,43.445,54,44.199,54,45s-0.312,1.555-0.878,2.121l1.414,1.414    C55.48,47.591,56,46.336,56,45S55.48,42.409,54.536,41.465z" data-original="#000000" class="active-path" style="fill:#4B4B4B" data-old_color="#4b4b4b"></path>
		<path d="M55.95,40.05C57.272,41.372,58,43.131,58,45s-0.728,3.628-2.05,4.95l1.414,1.414C59.064,49.664,60,47.403,60,45    s-0.936-4.664-2.636-6.364L55.95,40.05z" data-original="#000000" class="active-path" style="fill:#4B4B4B" data-old_color="#4b4b4b"></path>
		<path d="M9.464,41.465C8.52,42.409,8,43.664,8,45s0.52,2.591,1.464,3.535l1.414-1.414C10.312,46.555,10,45.801,10,45    s0.312-1.555,0.878-2.121L9.464,41.465z" data-original="#000000" class="active-path" style="fill:#4B4B4B" data-old_color="#4b4b4b"></path>
		<path d="M8.05,40.05l-1.414-1.414C4.936,40.336,4,42.597,4,45s0.936,4.664,2.636,6.364L8.05,49.95C6.728,48.628,6,46.869,6,45    S6.728,41.372,8.05,40.05z" data-original="#000000" class="active-path" style="fill:#4B4B4B" data-old_color="#4b4b4b"></path>
		<path d="M5.586,14l-1.293,1.293l1.414,1.414L9.414,13L5.707,9.293l-1.414,1.414L5.586,12H4c-1.654,0-3,1.346-3,3v10h2V15    c0-0.552,0.449-1,1-1H5.586z" data-original="#000000" class="active-path" style="fill:#4B4B4B" data-old_color="#4b4b4b"></path>
		<path d="M60,12h-1.586l1.293-1.293l-1.414-1.414L54.586,13l3.707,3.707l1.414-1.414L58.414,14H60c0.551,0,1,0.448,1,1v10h2V15    C63,13.346,61.654,12,60,12z" data-original="#000000" class="active-path" style="fill:#4B4B4B" data-old_color="#4b4b4b"></path>
		<rect x="35" y="14" width="14" height="2" data-original="#000000" class="active-path" style="fill:#4B4B4B" data-old_color="#4b4b4b"></rect>
		<rect x="35" y="22" width="14" height="2" data-original="#000000" class="active-path" style="fill:#4B4B4B" data-old_color="#4b4b4b"></rect>
		<rect x="35" y="18" width="6" height="2" data-original="#000000" class="active-path" style="fill:#4B4B4B" data-old_color="#4b4b4b"></rect>
		<rect x="43" y="18" width="6" height="2" data-original="#000000" class="active-path" style="fill:#4B4B4B" data-old_color="#4b4b4b"></rect>
		<rect x="15" y="14" width="14" height="2" data-original="#000000" class="active-path" style="fill:#4B4B4B" data-old_color="#4b4b4b"></rect>
		<rect x="15" y="22" width="14" height="2" data-original="#000000" class="active-path" style="fill:#4B4B4B" data-old_color="#4b4b4b"></rect>
		<rect x="15" y="18" width="6" height="2" data-original="#000000" class="active-path" style="fill:#4B4B4B" data-old_color="#4b4b4b"></rect>
		<rect x="23" y="18" width="6" height="2" data-original="#000000" class="active-path" style="fill:#4B4B4B" data-old_color="#4b4b4b"></rect>
		<rect x="15" y="5" width="2" height="2" data-original="#000000" class="active-path" style="fill:#4B4B4B" data-old_color="#4b4b4b"></rect>
		<rect x="19" y="5" width="2" height="2" data-original="#000000" class="active-path" style="fill:#4B4B4B" data-old_color="#4b4b4b"></rect>
		<rect x="23" y="5" width="2" height="2" data-original="#000000" class="active-path" style="fill:#4B4B4B" data-old_color="#4b4b4b"></rect>
		<rect x="61" y="28" width="2" height="2" data-original="#000000" class="active-path" style="fill:#4B4B4B" data-old_color="#4b4b4b"></rect>
		<rect x="61" y="33" width="2" height="2" data-original="#000000" class="active-path" style="fill:#4B4B4B" data-old_color="#4b4b4b"></rect>
		<rect x="61" y="38" width="2" height="2" data-original="#000000" class="active-path" style="fill:#4B4B4B" data-old_color="#4b4b4b"></rect>
		<rect x="1" y="28" width="2" height="2" data-original="#000000" class="active-path" style="fill:#4B4B4B" data-old_color="#4b4b4b"></rect>
		<rect x="1" y="33" width="2" height="2" data-original="#000000" class="active-path" style="fill:#4B4B4B" data-old_color="#4b4b4b"></rect>
		<rect x="1" y="38" width="2" height="2" data-original="#000000" class="active-path" style="fill:#4B4B4B" data-old_color="#4b4b4b"></rect>
	</g>
</g></g> </svg>