<svg xmlns="http://www.w3.org/2000/svg" height="512" viewBox="0 0 496 496" width="512" class=""><g><path d="m264 240h-56v-192h-80v16h64v176h-64v16h64v176h-64v16h80v-192h56zm0 0" data-original="#000000" class="active-path" style="fill:#4B4B4B" data-old_color="#4b4b4b"></path><path d="m496 248c0 66.273438-53.726562 120-120 120s-120-53.726562-120-120 53.726562-120 120-120 120 53.726562 120 120zm0 0" fill="#f0bc5e" data-original="#F0BC5E" class="" style="fill:#109BF8" data-old_color="#F0BC5E"></path><path d="m376 288c-22.054688 0-40-17.945312-40-40h16c0 13.230469 10.769531 24 24 24s24-10.769531 24-24h16c0 22.054688-17.945312 40-40 40zm0 0" data-original="#000000" class="active-path" style="fill:#4B4B4B" data-old_color="#4b4b4b"></path><path d="m416 84.945312v-84.945312l-40 30-40-30v84.945312l32 16v127.742188l-18.34375-18.34375-11.3125 11.3125 37.65625 37.65625 37.65625-37.65625-11.3125-11.3125-18.34375 18.34375v-127.742188zm-16-9.890624-16 8v-39.054688l16-12zm-48 0v-43.054688l16 12v39.054688zm0 0" data-original="#000000" class="active-path" style="fill:#4B4B4B" data-old_color="#4b4b4b"></path><path d="m376 336c-48.519531 0-88-39.480469-88-88 0-38.839844 24.910156-72.632812 62-84.089844l4.71875 15.289063c-30.335938 9.375-50.71875 37.015625-50.71875 68.800781 0 39.695312 32.304688 72 72 72s72-32.304688 72-72c0-31.785156-20.382812-59.425781-50.71875-68.800781l4.71875-15.289063c37.089844 11.457032 62 45.25 62 84.089844 0 48.519531-39.480469 88-88 88zm0 0" data-original="#000000" class="active-path" style="fill:#4B4B4B" data-old_color="#4b4b4b"></path><path d="m128 304h-128v-112h128zm0 0" fill="#f0bc5e" data-original="#F0BC5E" class="" style="fill:#109BF8" data-old_color="#F0BC5E"></path><path d="m32 224h64v16h-64zm0 0" data-original="#000000" class="active-path" style="fill:#4B4B4B" data-old_color="#4b4b4b"></path><path d="m72 256h16v16h-16zm0 0" data-original="#000000" class="active-path" style="fill:#4B4B4B" data-old_color="#4b4b4b"></path><path d="m40 256h16v16h-16zm0 0" data-original="#000000" class="active-path" style="fill:#4B4B4B" data-old_color="#4b4b4b"></path><path d="m128 112h-128v-112h128zm0 0" fill="#f0bc5e" data-original="#F0BC5E" class="" style="fill:#109BF8" data-old_color="#F0BC5E"></path><path d="m32 32h64v16h-64zm0 0" data-original="#000000" class="active-path" style="fill:#4B4B4B" data-old_color="#4b4b4b"></path><path d="m72 64h16v16h-16zm0 0" data-original="#000000" class="active-path" style="fill:#4B4B4B" data-old_color="#4b4b4b"></path><path d="m40 64h16v16h-16zm0 0" data-original="#000000" class="active-path" style="fill:#4B4B4B" data-old_color="#4b4b4b"></path><path d="m128 496h-128v-112h128zm0 0" fill="#f0bc5e" data-original="#F0BC5E" class="" style="fill:#109BF8" data-old_color="#F0BC5E"></path><path d="m32 416h64v16h-64zm0 0" data-original="#000000" class="active-path" style="fill:#4B4B4B" data-old_color="#4b4b4b"></path><path d="m72 448h16v16h-16zm0 0" data-original="#000000" class="active-path" style="fill:#4B4B4B" data-old_color="#4b4b4b"></path><path d="m40 448h16v16h-16zm0 0" data-original="#000000" class="active-path" style="fill:#4B4B4B" data-old_color="#4b4b4b"></path></g> </svg>