<svg xmlns="http://www.w3.org/2000/svg" height="512" viewBox="0 0 496 496" width="512" class=""><g><path d="m344 264c0 53.019531-42.980469 96-96 96s-96-42.980469-96-96 42.980469-96 96-96 96 42.980469 96 96zm0 0" fill="#f0bc5e" data-original="#F0BC5E" class="" style="fill:#109BF8" data-old_color="#F0BC5E"></path><path d="m96 400h16v16h-16zm0 0" data-original="#000000" class="active-path" style="fill:#4B4B4B" data-old_color="#4b4b4b"></path><path d="m64 400h16v16h-16zm0 0" data-original="#000000" class="active-path" style="fill:#4B4B4B" data-old_color="#4b4b4b"></path><path d="m32 400h16v16h-16zm0 0" data-original="#000000" class="active-path" style="fill:#4B4B4B" data-old_color="#4b4b4b"></path><path d="m456 112v16c13.230469 0 24 10.769531 24 24v232h-341.574219l-24-16h-98.425781v-216c0-13.230469 10.769531-24 24-24v-16c-22.054688 0-40 17.945312-40 40v256c0 22.054688 17.945312 40 40 40h104v32h-32v16h272v-16h-32v-32h104c22.054688 0 40-17.945312 40-40v-256c0-22.054688-17.945312-40-40-40zm0 320h-280v16h160v32h-176v-48h-120c-13.230469 0-24-10.769531-24-24v-24h93.574219l24 16h346.425781v8c0 13.230469-10.769531 24-24 24zm0 0" data-original="#000000" class="active-path" style="fill:#4B4B4B" data-old_color="#4b4b4b"></path><path d="m360 182.945312v-38.945312h-80c-13.230469 0-24-10.769531-24-24v-96c0-13.230469 10.769531-24 24-24h160c13.230469 0 24 10.769531 24 24v96c0 13.230469-10.769531 24-24 24h-21.574219zm0 0" fill="#f0bc5e" data-original="#F0BC5E" class="" style="fill:#109BF8" data-old_color="#F0BC5E"></path><path d="m248 368c-62.800781 0-121.078125-31.191406-155.902344-83.441406l-13.714844-20.558594 13.714844-20.558594c34.824219-52.25 93.101563-83.441406 155.902344-83.441406s121.078125 31.191406 155.902344 83.441406l13.714844 20.558594-13.714844 20.558594c-34.824219 52.25-93.101563 83.441406-155.902344 83.441406zm-150.382812-104 7.789062 11.6875c31.851562 47.785156 85.152344 76.3125 142.59375 76.3125s110.742188-28.527344 142.59375-76.3125l7.789062-11.6875-7.789062-11.6875c-31.851562-47.785156-85.152344-76.3125-142.59375-76.3125s-110.742188 28.527344-142.59375 76.3125zm0 0" data-original="#000000" class="active-path" style="fill:#4B4B4B" data-old_color="#4b4b4b"></path><path d="m248 320c-30.871094 0-56-25.121094-56-56s25.128906-56 56-56 56 25.121094 56 56-25.128906 56-56 56zm0-96c-22.054688 0-40 17.945312-40 40s17.945312 40 40 40 40-17.945312 40-40-17.945312-40-40-40zm0 0" data-original="#000000" class="active-path" style="fill:#4B4B4B" data-old_color="#4b4b4b"></path><path d="m248 288c-13.230469 0-24-10.769531-24-24s10.769531-24 24-24 24 10.769531 24 24-10.769531 24-24 24zm0-32c-4.414062 0-8 3.59375-8 8s3.585938 8 8 8 8-3.59375 8-8-3.585938-8-8-8zm0 0" data-original="#000000" class="active-path" style="fill:#4B4B4B" data-old_color="#4b4b4b"></path><path d="m136 182.945312-58.425781-38.945312h-21.574219c-13.230469 0-24-10.769531-24-24v-96c0-13.230469 10.769531-24 24-24h160c13.230469 0 24 10.769531 24 24v96c0 13.230469-10.769531 24-24 24h-80zm0 0" fill="#f0bc5e" data-original="#F0BC5E" class="" style="fill:#109BF8" data-old_color="#F0BC5E"></path><path d="m64 32h16v16h-16zm0 0" data-original="#000000" class="active-path" style="fill:#4B4B4B" data-old_color="#4b4b4b"></path><path d="m96 32h112v16h-112zm0 0" data-original="#000000" class="active-path" style="fill:#4B4B4B" data-old_color="#4b4b4b"></path><path d="m64 64h144v16h-144zm0 0" data-original="#000000" class="active-path" style="fill:#4B4B4B" data-old_color="#4b4b4b"></path><path d="m64 96h144v16h-144zm0 0" data-original="#000000" class="active-path" style="fill:#4B4B4B" data-old_color="#4b4b4b"></path><path d="m288 32h16v16h-16zm0 0" data-original="#000000" class="active-path" style="fill:#4B4B4B" data-old_color="#4b4b4b"></path><path d="m320 32h112v16h-112zm0 0" data-original="#000000" class="active-path" style="fill:#4B4B4B" data-old_color="#4b4b4b"></path><path d="m288 64h144v16h-144zm0 0" data-original="#000000" class="active-path" style="fill:#4B4B4B" data-old_color="#4b4b4b"></path><path d="m288 96h112v16h-112zm0 0" data-original="#000000" class="active-path" style="fill:#4B4B4B" data-old_color="#4b4b4b"></path><path d="m400 352h64v16h-64zm0 0" data-original="#000000" class="active-path" style="fill:#4B4B4B" data-old_color="#4b4b4b"></path><path d="m400 320h64v16h-64zm0 0" data-original="#000000" class="active-path" style="fill:#4B4B4B" data-old_color="#4b4b4b"></path><path d="m32 336h64v16h-64zm0 0" data-original="#000000" class="active-path" style="fill:#4B4B4B" data-old_color="#4b4b4b"></path><path d="m32 304h64v16h-64zm0 0" data-original="#000000" class="active-path" style="fill:#4B4B4B" data-old_color="#4b4b4b"></path></g> </svg>